<?xml version="1.0" encoding="utf-8" ?>
<svg baseProfile="full" height="850px" version="1.1" width="900px" xmlns="http://www.w3.org/2000/svg" xmlns:ev="http://www.w3.org/2001/xml-events" xmlns:xlink="http://www.w3.org/1999/xlink"><defs /><path d="M 702.24609375,538.720703125 L702.24609375,540.380859375 L703.125,540.380859375 L704.00390625,541.2109375 L704.8828125,541.2109375 L705.76171875,542.041015625 L705.76171875,542.87109375 L706.640625,543.701171875 L706.640625,572.75390625 L704.00390625,575.244140625 L702.24609375,575.244140625 L702.24609375,576.904296875 L733.0078125,576.904296875 L733.0078125,566.11328125 L730.37109375,566.11328125 L730.37109375,567.7734375 L729.4921875,568.603515625 L729.4921875,569.43359375 L728.61328125,570.263671875 L728.61328125,571.09375 L726.85546875,572.75390625 L725.9765625,572.75390625 L725.09765625,573.583984375 L717.1875,573.583984375 L715.4296875,571.923828125 L715.4296875,570.263671875 L714.55078125,569.43359375 L714.55078125,547.021484375 L715.4296875,546.19140625 L715.4296875,542.87109375 L718.06640625,540.380859375 L719.82421875,540.380859375 L719.82421875,538.720703125 Z" fill="black" /><path d="M 650.390625,538.720703125 L650.390625,540.380859375 L651.26953125,540.380859375 L652.1484375,541.2109375 L653.02734375,541.2109375 L653.90625,542.041015625 L653.90625,542.87109375 L654.78515625,543.701171875 L654.78515625,572.75390625 L653.02734375,574.4140625 L652.1484375,574.4140625 L651.26953125,575.244140625 L650.390625,575.244140625 L650.390625,576.904296875 L682.91015625,576.904296875 L682.91015625,573.583984375 L683.7890625,572.75390625 L683.7890625,566.943359375 L681.15234375,566.943359375 L680.2734375,567.7734375 L680.2734375,569.43359375 L678.515625,571.09375 L678.515625,571.923828125 L677.63671875,572.75390625 L676.7578125,572.75390625 L675.87890625,573.583984375 L664.453125,573.583984375 L663.57421875,572.75390625 L663.57421875,571.923828125 L662.6953125,571.09375 L662.6953125,559.47265625 L663.57421875,558.642578125 L668.84765625,558.642578125 L669.7265625,559.47265625 L671.484375,559.47265625 L673.2421875,561.1328125 L673.2421875,561.962890625 L674.12109375,562.79296875 L676.7578125,562.79296875 L676.7578125,551.171875 L675.0,551.171875 L674.12109375,552.001953125 L674.12109375,552.83203125 L671.484375,555.322265625 L663.57421875,555.322265625 L662.6953125,554.4921875 L662.6953125,542.87109375 L663.57421875,542.041015625 L675.0,542.041015625 L675.87890625,542.87109375 L676.7578125,542.87109375 L679.39453125,545.361328125 L679.39453125,547.021484375 L680.2734375,547.8515625 L680.2734375,548.681640625 L682.91015625,548.681640625 L682.91015625,538.720703125 Z" fill="black" /><path d="M 595.8984375,538.720703125 L595.8984375,548.681640625 L599.4140625,548.681640625 L599.4140625,546.19140625 L600.29296875,545.361328125 L600.29296875,543.701171875 L602.05078125,542.041015625 L609.08203125,542.041015625 L609.9609375,542.87109375 L609.9609375,572.75390625 L607.32421875,575.244140625 L605.56640625,575.244140625 L605.56640625,576.904296875 L623.14453125,576.904296875 L622.265625,576.07421875 L623.14453125,575.244140625 L621.38671875,575.244140625 L618.75,572.75390625 L618.75,571.09375 L617.87109375,570.263671875 L617.87109375,542.87109375 L618.75,542.041015625 L625.78125,542.041015625 L628.41796875,544.53125 L628.41796875,546.19140625 L629.296875,547.021484375 L629.296875,548.681640625 L632.8125,548.681640625 L632.8125,538.720703125 Z" fill="black" /><path d="M 477.24609375,538.720703125 L477.24609375,540.380859375 L478.125,540.380859375 L479.00390625,541.2109375 L479.8828125,541.2109375 L480.76171875,542.041015625 L480.76171875,542.87109375 L481.640625,543.701171875 L481.640625,571.923828125 L480.76171875,572.75390625 L480.76171875,573.583984375 L479.8828125,574.4140625 L479.00390625,574.4140625 L478.125,575.244140625 L477.24609375,575.244140625 L477.24609375,576.904296875 L493.9453125,576.904296875 L493.9453125,575.244140625 L493.06640625,575.244140625 L492.1875,574.4140625 L491.30859375,574.4140625 L490.4296875,573.583984375 L490.4296875,572.75390625 L489.55078125,571.923828125 L489.55078125,560.302734375 L490.4296875,559.47265625 L508.88671875,559.47265625 L509.765625,560.302734375 L509.765625,570.263671875 L508.88671875,571.09375 L508.88671875,572.75390625 L506.25,575.244140625 L504.4921875,575.244140625 L504.4921875,576.904296875 L522.0703125,576.904296875 L522.0703125,575.244140625 L521.19140625,575.244140625 L520.3125,574.4140625 L519.43359375,574.4140625 L517.67578125,572.75390625 L517.67578125,542.87109375 L520.3125,540.380859375 L522.0703125,540.380859375 L522.0703125,538.720703125 L504.4921875,538.720703125 L504.4921875,540.380859375 L506.25,540.380859375 L508.88671875,542.87109375 L508.88671875,543.701171875 L509.765625,544.53125 L509.765625,554.4921875 L508.88671875,555.322265625 L490.4296875,555.322265625 L489.55078125,554.4921875 L489.55078125,543.701171875 L490.4296875,542.87109375 L490.4296875,542.041015625 L491.30859375,541.2109375 L492.1875,541.2109375 L493.06640625,540.380859375 L493.9453125,540.380859375 L493.9453125,538.720703125 Z" fill="black" /><path d="M 557.2265625,537.890625 L556.34765625,538.720703125 L552.83203125,538.720703125 L551.953125,539.55078125 L551.07421875,539.55078125 L550.1953125,540.380859375 L548.4375,540.380859375 L546.6796875,542.041015625 L545.80078125,542.041015625 L542.28515625,545.361328125 L542.28515625,546.19140625 L540.52734375,547.8515625 L540.52734375,548.681640625 L539.6484375,549.51171875 L539.6484375,550.341796875 L538.76953125,551.171875 L538.76953125,554.4921875 L537.890625,555.322265625 L537.890625,562.79296875 L538.76953125,563.623046875 L538.76953125,566.11328125 L539.6484375,566.943359375 L539.6484375,567.7734375 L540.52734375,568.603515625 L540.52734375,569.43359375 L541.40625,570.263671875 L541.40625,571.09375 L544.921875,574.4140625 L545.80078125,574.4140625 L546.6796875,575.244140625 L547.55859375,575.244140625 L548.4375,576.07421875 L549.31640625,576.07421875 L550.1953125,576.904296875 L553.7109375,576.904296875 L554.58984375,577.734375 L560.7421875,577.734375 L561.62109375,576.904296875 L564.2578125,576.904296875 L565.13671875,576.07421875 L566.89453125,576.07421875 L567.7734375,575.244140625 L569.53125,575.244140625 L571.2890625,573.583984375 L572.16796875,573.583984375 L577.44140625,568.603515625 L577.44140625,567.7734375 L578.3203125,566.943359375 L578.3203125,566.11328125 L579.19921875,565.283203125 L579.19921875,564.453125 L580.078125,563.623046875 L580.078125,561.1328125 L580.95703125,560.302734375 L580.95703125,551.171875 L580.078125,550.341796875 L580.078125,548.681640625 L579.19921875,547.8515625 L579.19921875,547.021484375 L578.3203125,546.19140625 L578.3203125,545.361328125 L573.046875,540.380859375 L572.16796875,540.380859375 L571.2890625,539.55078125 L569.53125,539.55078125 L568.65234375,538.720703125 L566.015625,538.720703125 L565.13671875,537.890625 Z" fill="black" /><path d="M 624.90234375,435.791015625 L624.90234375,437.451171875 L624.0234375,438.28125 L624.0234375,439.94140625 L623.14453125,440.771484375 L623.14453125,441.6015625 L622.265625,442.431640625 L622.265625,444.091796875 L621.38671875,444.921875 L621.38671875,445.751953125 L620.5078125,446.58203125 L620.5078125,448.2421875 L619.62890625,449.072265625 L619.62890625,450.732421875 L618.75,451.5625 L618.75,452.392578125 L617.87109375,453.22265625 L617.87109375,454.8828125 L616.9921875,455.712890625 L616.9921875,456.54296875 L616.11328125,457.373046875 L616.11328125,459.033203125 L615.234375,459.86328125 L615.234375,461.5234375 L614.35546875,462.353515625 L614.35546875,463.18359375 L613.4765625,464.013671875 L613.4765625,465.673828125 L612.59765625,466.50390625 L612.59765625,468.1640625 L611.71875,468.994140625 L611.71875,469.82421875 L610.83984375,470.654296875 L610.83984375,472.314453125 L609.9609375,473.14453125 L609.9609375,474.8046875 L609.08203125,475.634765625 L609.08203125,476.46484375 L608.203125,477.294921875 L608.203125,478.955078125 L607.32421875,479.78515625 L607.32421875,480.615234375 L606.4453125,481.4453125 L606.4453125,483.10546875 L605.56640625,483.935546875 L605.56640625,485.595703125 L604.6875,486.42578125 L604.6875,487.255859375 L603.80859375,488.0859375 L603.80859375,489.74609375 L602.9296875,490.576171875 L602.9296875,492.236328125 L602.05078125,493.06640625 L602.05078125,493.896484375 L601.171875,494.7265625 L601.171875,496.38671875 L600.29296875,497.216796875 L600.29296875,498.046875 L599.4140625,498.876953125 L599.4140625,500.537109375 L598.53515625,501.3671875 L598.53515625,502.197265625 L597.65625,503.02734375 L597.65625,503.857421875 L596.77734375,504.6875 L596.77734375,505.517578125 L591.50390625,510.498046875 L589.74609375,510.498046875 L588.8671875,511.328125 L587.98828125,511.328125 L587.98828125,514.6484375 L612.59765625,514.6484375 L612.59765625,511.328125 L610.83984375,511.328125 L609.9609375,510.498046875 L609.08203125,510.498046875 L608.203125,509.66796875 L608.203125,508.837890625 L607.32421875,508.0078125 L607.32421875,503.857421875 L608.203125,503.02734375 L608.203125,501.3671875 L609.08203125,500.537109375 L609.08203125,498.876953125 L609.9609375,498.046875 L609.9609375,496.38671875 L610.83984375,495.556640625 L610.83984375,494.7265625 L611.71875,493.896484375 L611.71875,492.236328125 L612.59765625,491.40625 L612.59765625,490.576171875 L613.4765625,489.74609375 L639.84375,489.74609375 L641.6015625,491.40625 L641.6015625,493.06640625 L642.48046875,493.896484375 L642.48046875,494.7265625 L643.359375,495.556640625 L643.359375,497.216796875 L644.23828125,498.046875 L644.23828125,499.70703125 L645.1171875,500.537109375 L645.1171875,503.02734375 L645.99609375,503.857421875 L645.99609375,507.177734375 L645.1171875,508.0078125 L645.1171875,508.837890625 L643.359375,510.498046875 L642.48046875,510.498046875 L641.6015625,511.328125 L640.72265625,511.328125 L640.72265625,514.6484375 L699.609375,514.6484375 L699.609375,511.328125 L697.8515625,511.328125 L695.21484375,508.837890625 L695.21484375,502.197265625 L696.09375,501.3671875 L696.09375,499.70703125 L696.97265625,498.876953125 L696.97265625,497.216796875 L697.8515625,496.38671875 L697.8515625,494.7265625 L698.73046875,493.896484375 L698.73046875,493.06640625 L699.609375,492.236328125 L699.609375,490.576171875 L700.48828125,489.74609375 L727.734375,489.74609375 L728.61328125,490.576171875 L728.61328125,491.40625 L729.4921875,492.236328125 L729.4921875,493.896484375 L730.37109375,494.7265625 L730.37109375,495.556640625 L731.25,496.38671875 L731.25,498.046875 L732.12890625,498.876953125 L732.12890625,500.537109375 L733.0078125,501.3671875 L733.0078125,508.0078125 L729.4921875,511.328125 L727.734375,511.328125 L727.734375,514.6484375 L762.890625,514.6484375 L762.890625,511.328125 L761.1328125,511.328125 L760.25390625,510.498046875 L759.375,510.498046875 L758.49609375,509.66796875 L757.6171875,509.66796875 L755.859375,508.0078125 L755.859375,507.177734375 L754.98046875,506.34765625 L754.98046875,505.517578125 L754.1015625,504.6875 L754.1015625,503.857421875 L753.22265625,503.02734375 L753.22265625,502.197265625 L752.34375,501.3671875 L752.34375,499.70703125 L751.46484375,498.876953125 L751.46484375,498.046875 L750.5859375,497.216796875 L750.5859375,495.556640625 L749.70703125,494.7265625 L749.70703125,493.06640625 L748.828125,492.236328125 L748.828125,491.40625 L747.94921875,490.576171875 L747.94921875,488.916015625 L747.0703125,488.0859375 L747.0703125,486.42578125 L746.19140625,485.595703125 L746.19140625,483.935546875 L745.3125,483.10546875 L745.3125,482.275390625 L744.43359375,481.4453125 L744.43359375,479.78515625 L743.5546875,478.955078125 L743.5546875,477.294921875 L742.67578125,476.46484375 L742.67578125,475.634765625 L741.796875,474.8046875 L741.796875,473.14453125 L740.91796875,472.314453125 L740.91796875,470.654296875 L740.0390625,469.82421875 L740.0390625,468.994140625 L739.16015625,468.1640625 L739.16015625,466.50390625 L738.28125,465.673828125 L738.28125,464.013671875 L737.40234375,463.18359375 L737.40234375,462.353515625 L736.5234375,461.5234375 L736.5234375,459.86328125 L735.64453125,459.033203125 L735.64453125,457.373046875 L734.765625,456.54296875 L734.765625,454.8828125 L733.88671875,454.052734375 L733.88671875,453.22265625 L733.0078125,452.392578125 L733.0078125,450.732421875 L732.12890625,449.90234375 L732.12890625,448.2421875 L731.25,447.412109375 L731.25,446.58203125 L730.37109375,445.751953125 L730.37109375,444.091796875 L729.4921875,443.26171875 L729.4921875,441.6015625 L728.61328125,440.771484375 L728.61328125,439.111328125 L727.734375,438.28125 L727.734375,437.451171875 L726.85546875,436.62109375 L726.85546875,435.791015625 L712.79296875,435.791015625 L711.9140625,436.62109375 L711.9140625,438.28125 L711.03515625,439.111328125 L711.03515625,440.771484375 L710.15625,441.6015625 L710.15625,442.431640625 L709.27734375,443.26171875 L709.27734375,444.921875 L708.3984375,445.751953125 L708.3984375,446.58203125 L707.51953125,447.412109375 L707.51953125,449.072265625 L706.640625,449.90234375 L706.640625,451.5625 L705.76171875,452.392578125 L705.76171875,453.22265625 L704.8828125,454.052734375 L704.8828125,455.712890625 L704.00390625,456.54296875 L704.00390625,458.203125 L703.125,459.033203125 L703.125,459.86328125 L702.24609375,460.693359375 L702.24609375,462.353515625 L701.3671875,463.18359375 L701.3671875,464.013671875 L700.48828125,464.84375 L700.48828125,466.50390625 L699.609375,467.333984375 L699.609375,468.994140625 L698.73046875,469.82421875 L698.73046875,470.654296875 L697.8515625,471.484375 L697.8515625,473.14453125 L696.97265625,473.974609375 L696.97265625,475.634765625 L696.09375,476.46484375 L696.09375,477.294921875 L695.21484375,478.125 L695.21484375,479.78515625 L694.3359375,480.615234375 L694.3359375,481.4453125 L693.45703125,482.275390625 L693.45703125,483.935546875 L692.578125,484.765625 L692.578125,486.42578125 L691.69921875,487.255859375 L691.69921875,488.0859375 L690.8203125,488.916015625 L690.8203125,490.576171875 L689.94140625,491.40625 L689.94140625,493.06640625 L689.0625,493.896484375 L689.0625,494.7265625 L688.18359375,495.556640625 L688.18359375,497.216796875 L687.3046875,498.046875 L687.3046875,498.876953125 L686.42578125,499.70703125 L686.42578125,501.3671875 L685.546875,502.197265625 L685.546875,503.02734375 L684.66796875,503.857421875 L684.66796875,504.6875 L682.91015625,506.34765625 L682.91015625,507.177734375 L680.2734375,509.66796875 L679.39453125,509.66796875 L678.515625,510.498046875 L677.63671875,510.498046875 L676.7578125,511.328125 L674.12109375,511.328125 L673.2421875,510.498046875 L671.484375,510.498046875 L670.60546875,509.66796875 L669.7265625,509.66796875 L667.96875,508.0078125 L667.96875,507.177734375 L667.08984375,506.34765625 L667.08984375,505.517578125 L666.2109375,504.6875 L666.2109375,503.857421875 L665.33203125,503.02734375 L665.33203125,502.197265625 L664.453125,501.3671875 L664.453125,499.70703125 L663.57421875,498.876953125 L663.57421875,498.046875 L662.6953125,497.216796875 L662.6953125,495.556640625 L661.81640625,494.7265625 L661.81640625,493.06640625 L660.9375,492.236328125 L660.9375,491.40625 L660.05859375,490.576171875 L660.05859375,488.916015625 L659.1796875,488.0859375 L659.1796875,486.42578125 L658.30078125,485.595703125 L658.30078125,483.935546875 L657.421875,483.10546875 L657.421875,482.275390625 L656.54296875,481.4453125 L656.54296875,479.78515625 L655.6640625,478.955078125 L655.6640625,477.294921875 L654.78515625,476.46484375 L654.78515625,475.634765625 L653.90625,474.8046875 L653.90625,473.14453125 L653.02734375,472.314453125 L653.02734375,470.654296875 L652.1484375,469.82421875 L652.1484375,468.994140625 L651.26953125,468.1640625 L651.26953125,466.50390625 L650.390625,465.673828125 L650.390625,464.013671875 L649.51171875,463.18359375 L649.51171875,461.5234375 L648.6328125,460.693359375 L648.6328125,459.86328125 L647.75390625,459.033203125 L647.75390625,457.373046875 L646.875,456.54296875 L646.875,454.8828125 L645.99609375,454.052734375 L645.99609375,453.22265625 L645.1171875,452.392578125 L645.1171875,450.732421875 L644.23828125,449.90234375 L644.23828125,448.2421875 L643.359375,447.412109375 L643.359375,445.751953125 L642.48046875,444.921875 L642.48046875,443.26171875 L641.6015625,442.431640625 L641.6015625,441.6015625 L640.72265625,440.771484375 L640.72265625,439.111328125 L639.84375,438.28125 L639.84375,436.62109375 L638.96484375,435.791015625 Z" fill="black" /><path d="M 475.48828125,435.791015625 L475.48828125,439.111328125 L478.125,439.111328125 L480.76171875,441.6015625 L480.76171875,443.26171875 L481.640625,444.091796875 L481.640625,456.54296875 L480.76171875,457.373046875 L480.76171875,470.654296875 L479.8828125,471.484375 L479.8828125,483.10546875 L479.00390625,483.935546875 L479.00390625,496.38671875 L478.125,497.216796875 L478.125,503.857421875 L477.24609375,504.6875 L477.24609375,506.34765625 L476.3671875,507.177734375 L476.3671875,508.0078125 L473.73046875,510.498046875 L471.97265625,510.498046875 L471.09375,511.328125 L470.21484375,511.328125 L470.21484375,514.6484375 L494.82421875,514.6484375 L494.82421875,511.328125 L493.06640625,511.328125 L492.1875,510.498046875 L490.4296875,510.498046875 L487.79296875,508.0078125 L487.79296875,506.34765625 L486.9140625,505.517578125 L486.9140625,487.255859375 L487.79296875,486.42578125 L487.79296875,473.974609375 L488.671875,473.14453125 L488.671875,461.5234375 L489.55078125,460.693359375 L489.55078125,454.8828125 L490.4296875,454.052734375 L491.30859375,454.8828125 L491.30859375,455.712890625 L492.1875,456.54296875 L492.1875,457.373046875 L493.06640625,458.203125 L493.06640625,459.033203125 L493.9453125,459.86328125 L493.9453125,461.5234375 L494.82421875,462.353515625 L494.82421875,463.18359375 L495.703125,464.013671875 L495.703125,464.84375 L496.58203125,465.673828125 L496.58203125,466.50390625 L497.4609375,467.333984375 L497.4609375,468.1640625 L498.33984375,468.994140625 L498.33984375,469.82421875 L499.21875,470.654296875 L499.21875,472.314453125 L500.09765625,473.14453125 L500.09765625,473.974609375 L500.9765625,474.8046875 L500.9765625,475.634765625 L501.85546875,476.46484375 L501.85546875,478.125 L502.734375,478.955078125 L502.734375,479.78515625 L503.61328125,480.615234375 L503.61328125,482.275390625 L504.4921875,483.10546875 L504.4921875,483.935546875 L505.37109375,484.765625 L505.37109375,486.42578125 L506.25,487.255859375 L506.25,488.0859375 L507.12890625,488.916015625 L507.12890625,489.74609375 L508.0078125,490.576171875 L508.0078125,492.236328125 L508.88671875,493.06640625 L508.88671875,493.896484375 L509.765625,494.7265625 L509.765625,496.38671875 L510.64453125,497.216796875 L510.64453125,498.046875 L511.5234375,498.876953125 L511.5234375,500.537109375 L512.40234375,501.3671875 L512.40234375,502.197265625 L513.28125,503.02734375 L513.28125,503.857421875 L514.16015625,504.6875 L514.16015625,506.34765625 L515.0390625,507.177734375 L515.0390625,508.0078125 L515.91796875,508.837890625 L515.91796875,509.66796875 L516.796875,510.498046875 L516.796875,512.158203125 L517.67578125,512.98828125 L517.67578125,513.818359375 L524.70703125,513.818359375 L524.70703125,512.98828125 L525.5859375,512.158203125 L525.5859375,510.498046875 L526.46484375,509.66796875 L526.46484375,508.837890625 L527.34375,508.0078125 L527.34375,507.177734375 L528.22265625,506.34765625 L528.22265625,505.517578125 L529.1015625,504.6875 L529.1015625,503.02734375 L529.98046875,502.197265625 L529.98046875,501.3671875 L530.859375,500.537109375 L530.859375,499.70703125 L531.73828125,498.876953125 L531.73828125,497.216796875 L532.6171875,496.38671875 L532.6171875,495.556640625 L533.49609375,494.7265625 L533.49609375,493.896484375 L534.375,493.06640625 L534.375,491.40625 L535.25390625,490.576171875 L535.25390625,489.74609375 L536.1328125,488.916015625 L536.1328125,488.0859375 L537.01171875,487.255859375 L537.01171875,486.42578125 L537.890625,485.595703125 L537.890625,483.935546875 L538.76953125,483.10546875 L538.76953125,482.275390625 L539.6484375,481.4453125 L539.6484375,480.615234375 L540.52734375,479.78515625 L540.52734375,478.125 L541.40625,477.294921875 L541.40625,476.46484375 L542.28515625,475.634765625 L542.28515625,474.8046875 L543.1640625,473.974609375 L543.1640625,473.14453125 L544.04296875,472.314453125 L544.04296875,470.654296875 L544.921875,469.82421875 L544.921875,468.994140625 L545.80078125,468.1640625 L545.80078125,467.333984375 L546.6796875,466.50390625 L546.6796875,465.673828125 L547.55859375,464.84375 L547.55859375,464.013671875 L548.4375,463.18359375 L548.4375,462.353515625 L549.31640625,461.5234375 L549.31640625,459.86328125 L550.1953125,459.033203125 L550.1953125,458.203125 L551.07421875,457.373046875 L551.07421875,456.54296875 L551.953125,455.712890625 L551.953125,454.8828125 L552.83203125,454.052734375 L553.7109375,454.8828125 L553.7109375,475.634765625 L554.58984375,476.46484375 L554.58984375,493.896484375 L555.46875,494.7265625 L555.46875,506.34765625 L554.58984375,507.177734375 L554.58984375,508.0078125 L553.7109375,508.837890625 L553.7109375,509.66796875 L552.83203125,510.498046875 L551.953125,510.498046875 L551.07421875,511.328125 L549.31640625,511.328125 L549.31640625,514.6484375 L581.8359375,514.6484375 L581.8359375,511.328125 L580.95703125,511.328125 L580.078125,510.498046875 L578.3203125,510.498046875 L575.68359375,508.0078125 L575.68359375,507.177734375 L574.8046875,506.34765625 L574.8046875,503.02734375 L573.92578125,502.197265625 L573.92578125,488.0859375 L573.046875,487.255859375 L573.046875,476.46484375 L572.16796875,475.634765625 L572.16796875,464.013671875 L571.2890625,463.18359375 L571.2890625,443.26171875 L572.16796875,442.431640625 L572.16796875,441.6015625 L573.92578125,439.94140625 L574.8046875,439.94140625 L575.68359375,439.111328125 L577.44140625,439.111328125 L577.44140625,435.791015625 L553.7109375,435.791015625 L553.7109375,436.62109375 L552.83203125,437.451171875 L552.83203125,438.28125 L551.953125,439.111328125 L551.953125,439.94140625 L551.07421875,440.771484375 L551.07421875,441.6015625 L550.1953125,442.431640625 L550.1953125,443.26171875 L549.31640625,444.091796875 L549.31640625,444.921875 L548.4375,445.751953125 L548.4375,446.58203125 L547.55859375,447.412109375 L547.55859375,448.2421875 L546.6796875,449.072265625 L546.6796875,449.90234375 L545.80078125,450.732421875 L545.80078125,451.5625 L544.921875,452.392578125 L544.921875,454.052734375 L544.04296875,454.8828125 L544.04296875,455.712890625 L543.1640625,456.54296875 L543.1640625,457.373046875 L542.28515625,458.203125 L542.28515625,459.033203125 L541.40625,459.86328125 L541.40625,460.693359375 L540.52734375,461.5234375 L540.52734375,462.353515625 L539.6484375,463.18359375 L539.6484375,464.013671875 L538.76953125,464.84375 L538.76953125,465.673828125 L537.890625,466.50390625 L537.890625,467.333984375 L537.01171875,468.1640625 L537.01171875,469.82421875 L536.1328125,470.654296875 L536.1328125,471.484375 L535.25390625,472.314453125 L535.25390625,473.14453125 L534.375,473.974609375 L534.375,474.8046875 L533.49609375,475.634765625 L533.49609375,476.46484375 L532.6171875,477.294921875 L532.6171875,478.125 L531.73828125,478.955078125 L531.73828125,479.78515625 L530.859375,480.615234375 L530.859375,481.4453125 L529.98046875,482.275390625 L529.98046875,483.10546875 L529.1015625,483.935546875 L529.1015625,484.765625 L528.22265625,485.595703125 L528.22265625,487.255859375 L527.34375,488.0859375 L526.46484375,488.0859375 L525.5859375,487.255859375 L525.5859375,485.595703125 L524.70703125,484.765625 L524.70703125,483.935546875 L523.828125,483.10546875 L523.828125,482.275390625 L522.94921875,481.4453125 L522.94921875,480.615234375 L522.0703125,479.78515625 L522.0703125,478.955078125 L521.19140625,478.125 L521.19140625,476.46484375 L520.3125,475.634765625 L520.3125,474.8046875 L519.43359375,473.974609375 L519.43359375,473.14453125 L518.5546875,472.314453125 L518.5546875,471.484375 L517.67578125,470.654296875 L517.67578125,469.82421875 L516.796875,468.994140625 L516.796875,467.333984375 L515.91796875,466.50390625 L515.91796875,465.673828125 L515.0390625,464.84375 L515.0390625,464.013671875 L514.16015625,463.18359375 L514.16015625,462.353515625 L513.28125,461.5234375 L513.28125,460.693359375 L512.40234375,459.86328125 L512.40234375,458.203125 L511.5234375,457.373046875 L511.5234375,456.54296875 L510.64453125,455.712890625 L510.64453125,454.8828125 L509.765625,454.052734375 L509.765625,453.22265625 L508.88671875,452.392578125 L508.88671875,451.5625 L508.0078125,450.732421875 L508.0078125,449.072265625 L507.12890625,448.2421875 L507.12890625,447.412109375 L506.25,446.58203125 L506.25,445.751953125 L505.37109375,444.921875 L505.37109375,444.091796875 L504.4921875,443.26171875 L504.4921875,442.431640625 L503.61328125,441.6015625 L503.61328125,439.94140625 L502.734375,439.111328125 L502.734375,438.28125 L501.85546875,437.451171875 L501.85546875,436.62109375 L500.9765625,435.791015625 Z" fill="black" /><path d="M 283.88671875,274.755859375 L283.0078125,275.5859375 L282.12890625,275.5859375 L281.25,276.416015625 L280.37109375,276.416015625 L278.61328125,278.076171875 L277.734375,278.076171875 L275.9765625,279.736328125 L275.09765625,279.736328125 L273.33984375,281.396484375 L272.4609375,281.396484375 L271.58203125,282.2265625 L270.703125,282.2265625 L268.9453125,283.88671875 L268.06640625,283.88671875 L266.30859375,285.546875 L265.4296875,285.546875 L263.671875,287.20703125 L262.79296875,287.20703125 L261.03515625,288.8671875 L260.15625,288.8671875 L259.27734375,289.697265625 L258.3984375,289.697265625 L256.640625,291.357421875 L255.76171875,291.357421875 L254.00390625,293.017578125 L253.125,293.017578125 L251.3671875,294.677734375 L250.48828125,294.677734375 L249.609375,295.5078125 L248.73046875,295.5078125 L246.97265625,297.16796875 L246.09375,297.16796875 L244.3359375,298.828125 L243.45703125,298.828125 L241.69921875,300.48828125 L240.8203125,300.48828125 L239.0625,302.1484375 L238.18359375,302.1484375 L237.3046875,302.978515625 L236.42578125,302.978515625 L234.66796875,304.638671875 L233.7890625,304.638671875 L232.03125,306.298828125 L231.15234375,306.298828125 L229.39453125,307.958984375 L228.515625,307.958984375 L227.63671875,308.7890625 L226.7578125,308.7890625 L225.0,310.44921875 L224.12109375,310.44921875 L222.36328125,312.109375 L221.484375,312.109375 L219.7265625,313.76953125 L218.84765625,313.76953125 L217.08984375,315.4296875 L216.2109375,315.4296875 L215.33203125,316.259765625 L214.453125,316.259765625 L212.6953125,317.919921875 L211.81640625,317.919921875 L210.05859375,319.580078125 L209.1796875,319.580078125 L207.421875,321.240234375 L206.54296875,321.240234375 L205.6640625,322.0703125 L204.78515625,322.0703125 L203.02734375,323.73046875 L202.1484375,323.73046875 L200.390625,325.390625 L199.51171875,325.390625 L198.6328125,326.220703125 L197.75390625,326.220703125 L195.99609375,327.880859375 L195.1171875,327.880859375 L193.359375,329.541015625 L192.48046875,329.541015625 L190.72265625,331.201171875 L189.84375,331.201171875 L188.0859375,332.861328125 L187.20703125,332.861328125 L186.328125,333.69140625 L185.44921875,333.69140625 L183.69140625,335.3515625 L182.8125,335.3515625 L181.0546875,337.01171875 L180.17578125,337.01171875 L179.296875,337.841796875 L178.41796875,337.841796875 L176.66015625,339.501953125 L175.78125,339.501953125 L174.0234375,341.162109375 L173.14453125,341.162109375 L171.38671875,342.822265625 L170.5078125,342.822265625 L168.75,344.482421875 L167.87109375,344.482421875 L166.9921875,345.3125 L166.11328125,345.3125 L164.35546875,346.97265625 L163.4765625,346.97265625 L161.71875,348.6328125 L160.83984375,348.6328125 L159.08203125,350.29296875 L158.203125,350.29296875 L157.32421875,351.123046875 L156.4453125,351.123046875 L154.6875,352.783203125 L153.80859375,352.783203125 L152.05078125,354.443359375 L151.171875,354.443359375 L149.4140625,356.103515625 L148.53515625,356.103515625 L147.65625,356.93359375 L146.77734375,356.93359375 L145.01953125,358.59375 L144.140625,358.59375 L142.3828125,360.25390625 L141.50390625,360.25390625 L139.74609375,361.9140625 L138.8671875,361.9140625 L137.98828125,362.744140625 L137.109375,362.744140625 L135.3515625,364.404296875 L134.47265625,364.404296875 L132.71484375,366.064453125 L131.8359375,366.064453125 L130.078125,367.724609375 L129.19921875,367.724609375 L128.3203125,368.5546875 L127.44140625,368.5546875 L125.68359375,370.21484375 L124.8046875,370.21484375 L123.046875,371.875 L122.16796875,371.875 L120.41015625,373.53515625 L119.53125,373.53515625 L118.65234375,374.365234375 L117.7734375,374.365234375 L116.015625,376.025390625 L115.13671875,376.025390625 L111.62109375,379.345703125 L111.62109375,380.17578125 L110.7421875,381.005859375 L110.7421875,384.326171875 L111.62109375,385.15625 L111.62109375,385.986328125 L112.5,386.81640625 L112.5,387.646484375 L113.37890625,388.4765625 L114.2578125,388.4765625 L115.13671875,389.306640625 L116.89453125,389.306640625 L117.7734375,390.13671875 L135.3515625,390.13671875 L136.23046875,390.966796875 L139.74609375,390.966796875 L140.625,391.796875 L141.50390625,391.796875 L142.3828125,392.626953125 L143.26171875,392.626953125 L145.01953125,394.287109375 L145.01953125,395.947265625 L145.8984375,396.77734375 L145.8984375,527.9296875 L145.01953125,528.759765625 L145.01953125,530.419921875 L144.140625,531.25 L144.140625,532.080078125 L143.26171875,532.91015625 L143.26171875,533.740234375 L138.8671875,537.890625 L137.109375,537.890625 L136.23046875,538.720703125 L132.71484375,538.720703125 L132.71484375,544.53125 L233.7890625,544.53125 L233.7890625,539.55078125 L232.03125,539.55078125 L231.15234375,538.720703125 L229.39453125,538.720703125 L228.515625,537.890625 L226.7578125,537.890625 L225.87890625,537.060546875 L225.0,537.060546875 L222.36328125,534.5703125 L221.484375,534.5703125 L219.7265625,532.91015625 L219.7265625,532.080078125 L217.96875,530.419921875 L217.96875,527.099609375 L217.08984375,526.26953125 L217.08984375,508.0078125 L217.96875,507.177734375 L217.96875,492.236328125 L218.84765625,491.40625 L218.84765625,474.8046875 L219.7265625,473.974609375 L219.7265625,454.8828125 L220.60546875,454.052734375 L220.60546875,432.470703125 L221.484375,431.640625 L221.484375,420.01953125 L222.36328125,419.189453125 L223.2421875,420.01953125 L223.2421875,420.849609375 L224.12109375,421.6796875 L224.12109375,423.33984375 L225.0,424.169921875 L225.0,425.0 L225.87890625,425.830078125 L225.87890625,426.66015625 L226.7578125,427.490234375 L226.7578125,429.150390625 L227.63671875,429.98046875 L227.63671875,430.810546875 L228.515625,431.640625 L228.515625,432.470703125 L229.39453125,433.30078125 L229.39453125,434.9609375 L230.2734375,435.791015625 L230.2734375,436.62109375 L231.15234375,437.451171875 L231.15234375,438.28125 L232.03125,439.111328125 L232.03125,440.771484375 L232.91015625,441.6015625 L232.91015625,442.431640625 L233.7890625,443.26171875 L233.7890625,444.091796875 L234.66796875,444.921875 L234.66796875,446.58203125 L235.546875,447.412109375 L235.546875,448.2421875 L236.42578125,449.072265625 L236.42578125,449.90234375 L237.3046875,450.732421875 L237.3046875,452.392578125 L238.18359375,453.22265625 L238.18359375,454.052734375 L239.0625,454.8828125 L239.0625,455.712890625 L239.94140625,456.54296875 L239.94140625,457.373046875 L240.8203125,458.203125 L240.8203125,459.86328125 L241.69921875,460.693359375 L241.69921875,461.5234375 L242.578125,462.353515625 L242.578125,463.18359375 L243.45703125,464.013671875 L243.45703125,465.673828125 L244.3359375,466.50390625 L244.3359375,467.333984375 L245.21484375,468.1640625 L245.21484375,468.994140625 L246.09375,469.82421875 L246.09375,470.654296875 L246.97265625,471.484375 L246.97265625,473.14453125 L247.8515625,473.974609375 L247.8515625,474.8046875 L248.73046875,475.634765625 L248.73046875,476.46484375 L249.609375,477.294921875 L249.609375,478.955078125 L250.48828125,479.78515625 L250.48828125,480.615234375 L251.3671875,481.4453125 L251.3671875,482.275390625 L252.24609375,483.10546875 L252.24609375,484.765625 L253.125,485.595703125 L253.125,486.42578125 L254.00390625,487.255859375 L254.00390625,488.0859375 L254.8828125,488.916015625 L254.8828125,489.74609375 L255.76171875,490.576171875 L255.76171875,492.236328125 L256.640625,493.06640625 L256.640625,493.896484375 L257.51953125,494.7265625 L257.51953125,495.556640625 L258.3984375,496.38671875 L258.3984375,498.046875 L259.27734375,498.876953125 L259.27734375,499.70703125 L260.15625,500.537109375 L260.15625,501.3671875 L261.03515625,502.197265625 L261.03515625,503.02734375 L261.9140625,503.857421875 L261.9140625,505.517578125 L262.79296875,506.34765625 L262.79296875,507.177734375 L263.671875,508.0078125 L263.671875,508.837890625 L264.55078125,509.66796875 L264.55078125,510.498046875 L265.4296875,511.328125 L265.4296875,512.98828125 L266.30859375,513.818359375 L266.30859375,514.6484375 L267.1875,515.478515625 L267.1875,516.30859375 L268.06640625,517.138671875 L268.06640625,517.96875 L268.9453125,518.798828125 L268.9453125,520.458984375 L269.82421875,521.2890625 L269.82421875,522.119140625 L270.703125,522.94921875 L270.703125,523.779296875 L271.58203125,524.609375 L271.58203125,526.26953125 L272.4609375,527.099609375 L272.4609375,527.9296875 L273.33984375,528.759765625 L273.33984375,529.58984375 L274.21875,530.419921875 L274.21875,532.080078125 L275.09765625,532.91015625 L275.09765625,533.740234375 L275.9765625,534.5703125 L275.9765625,535.400390625 L276.85546875,536.23046875 L276.85546875,537.060546875 L277.734375,537.890625 L277.734375,539.55078125 L278.61328125,540.380859375 L278.61328125,541.2109375 L279.4921875,542.041015625 L279.4921875,542.87109375 L280.37109375,543.701171875 L282.12890625,543.701171875 L282.12890625,542.87109375 L283.0078125,542.041015625 L283.0078125,541.2109375 L283.88671875,540.380859375 L283.88671875,538.720703125 L284.765625,537.890625 L284.765625,537.060546875 L285.64453125,536.23046875 L285.64453125,535.400390625 L286.5234375,534.5703125 L286.5234375,533.740234375 L287.40234375,532.91015625 L287.40234375,531.25 L288.28125,530.419921875 L288.28125,529.58984375 L289.16015625,528.759765625 L289.16015625,527.9296875 L290.0390625,527.099609375 L290.0390625,525.439453125 L290.91796875,524.609375 L290.91796875,523.779296875 L291.796875,522.94921875 L291.796875,522.119140625 L292.67578125,521.2890625 L292.67578125,519.62890625 L293.5546875,518.798828125 L293.5546875,517.96875 L294.43359375,517.138671875 L294.43359375,516.30859375 L295.3125,515.478515625 L295.3125,513.818359375 L296.19140625,512.98828125 L296.19140625,512.158203125 L297.0703125,511.328125 L297.0703125,510.498046875 L297.94921875,509.66796875 L297.94921875,508.0078125 L298.828125,507.177734375 L298.828125,506.34765625 L299.70703125,505.517578125 L299.70703125,503.857421875 L300.5859375,503.02734375 L300.5859375,502.197265625 L301.46484375,501.3671875 L301.46484375,500.537109375 L302.34375,499.70703125 L302.34375,498.046875 L303.22265625,497.216796875 L303.22265625,496.38671875 L304.1015625,495.556640625 L304.1015625,494.7265625 L304.98046875,493.896484375 L304.98046875,492.236328125 L305.859375,491.40625 L305.859375,490.576171875 L306.73828125,489.74609375 L306.73828125,488.916015625 L307.6171875,488.0859375 L307.6171875,486.42578125 L308.49609375,485.595703125 L308.49609375,484.765625 L309.375,483.935546875 L309.375,483.10546875 L310.25390625,482.275390625 L310.25390625,480.615234375 L311.1328125,479.78515625 L311.1328125,478.955078125 L312.01171875,478.125 L312.01171875,476.46484375 L312.890625,475.634765625 L312.890625,474.8046875 L313.76953125,473.974609375 L313.76953125,473.14453125 L314.6484375,472.314453125 L314.6484375,470.654296875 L315.52734375,469.82421875 L315.52734375,468.994140625 L316.40625,468.1640625 L316.40625,467.333984375 L317.28515625,466.50390625 L317.28515625,464.84375 L318.1640625,464.013671875 L318.1640625,463.18359375 L319.04296875,462.353515625 L319.04296875,461.5234375 L319.921875,460.693359375 L319.921875,459.033203125 L320.80078125,458.203125 L320.80078125,457.373046875 L321.6796875,456.54296875 L321.6796875,455.712890625 L322.55859375,454.8828125 L322.55859375,453.22265625 L323.4375,452.392578125 L323.4375,451.5625 L324.31640625,450.732421875 L324.31640625,449.072265625 L325.1953125,448.2421875 L325.1953125,447.412109375 L326.07421875,446.58203125 L326.07421875,445.751953125 L326.953125,444.921875 L326.953125,443.26171875 L327.83203125,442.431640625 L327.83203125,441.6015625 L328.7109375,440.771484375 L328.7109375,439.94140625 L329.58984375,439.111328125 L329.58984375,437.451171875 L330.46875,436.62109375 L330.46875,435.791015625 L331.34765625,434.9609375 L331.34765625,434.130859375 L332.2265625,433.30078125 L332.2265625,431.640625 L333.10546875,430.810546875 L333.10546875,429.98046875 L333.984375,429.150390625 L333.984375,428.3203125 L334.86328125,427.490234375 L334.86328125,425.830078125 L335.7421875,425.0 L335.7421875,424.169921875 L336.62109375,423.33984375 L336.62109375,422.509765625 L337.5,421.6796875 L337.5,420.01953125 L338.37890625,419.189453125 L338.37890625,418.359375 L339.2578125,417.529296875 L340.13671875,418.359375 L340.13671875,422.509765625 L341.015625,423.33984375 L341.015625,439.94140625 L341.89453125,440.771484375 L341.89453125,454.8828125 L342.7734375,455.712890625 L342.7734375,468.1640625 L343.65234375,468.994140625 L343.65234375,482.275390625 L344.53125,483.10546875 L344.53125,495.556640625 L345.41015625,496.38671875 L345.41015625,508.837890625 L346.2890625,509.66796875 L346.2890625,528.759765625 L345.41015625,529.58984375 L345.41015625,530.419921875 L344.53125,531.25 L344.53125,532.080078125 L340.13671875,536.23046875 L339.2578125,536.23046875 L338.37890625,537.060546875 L337.5,537.060546875 L336.62109375,537.890625 L335.7421875,537.890625 L334.86328125,538.720703125 L333.10546875,538.720703125 L332.2265625,539.55078125 L330.46875,539.55078125 L330.46875,543.701171875 L329.58984375,544.53125 L436.81640625,544.53125 L436.81640625,538.720703125 L432.421875,538.720703125 L431.54296875,537.890625 L430.6640625,537.890625 L429.78515625,537.060546875 L428.90625,537.060546875 L426.26953125,534.5703125 L426.26953125,533.740234375 L425.390625,532.91015625 L425.390625,531.25 L424.51171875,530.419921875 L424.51171875,525.439453125 L423.6328125,524.609375 L423.6328125,398.4375 L424.51171875,397.607421875 L424.51171875,395.1171875 L428.90625,390.966796875 L430.6640625,390.966796875 L431.54296875,390.13671875 L452.63671875,390.13671875 L453.515625,389.306640625 L456.15234375,389.306640625 L457.03125,388.4765625 L457.91015625,388.4765625 L459.66796875,386.81640625 L459.66796875,385.986328125 L460.546875,385.15625 L460.546875,381.005859375 L458.7890625,379.345703125 L458.7890625,378.515625 L457.91015625,378.515625 L455.2734375,376.025390625 L454.39453125,376.025390625 L452.63671875,374.365234375 L451.7578125,374.365234375 L450.87890625,373.53515625 L450.0,373.53515625 L448.2421875,371.875 L447.36328125,371.875 L445.60546875,370.21484375 L444.7265625,370.21484375 L443.84765625,369.384765625 L442.96875,369.384765625 L441.2109375,367.724609375 L440.33203125,367.724609375 L438.57421875,366.064453125 L437.6953125,366.064453125 L435.9375,364.404296875 L435.05859375,364.404296875 L434.1796875,363.57421875 L433.30078125,363.57421875 L431.54296875,361.9140625 L430.6640625,361.9140625 L428.90625,360.25390625 L428.02734375,360.25390625 L426.26953125,358.59375 L425.390625,358.59375 L424.51171875,357.763671875 L423.6328125,357.763671875 L421.875,356.103515625 L420.99609375,356.103515625 L419.23828125,354.443359375 L418.359375,354.443359375 L417.48046875,353.61328125 L416.6015625,353.61328125 L414.84375,351.953125 L413.96484375,351.953125 L412.20703125,350.29296875 L411.328125,350.29296875 L409.5703125,348.6328125 L408.69140625,348.6328125 L407.8125,347.802734375 L406.93359375,347.802734375 L405.17578125,346.142578125 L404.296875,346.142578125 L402.5390625,344.482421875 L401.66015625,344.482421875 L399.90234375,342.822265625 L399.0234375,342.822265625 L398.14453125,341.9921875 L397.265625,341.9921875 L395.5078125,340.33203125 L394.62890625,340.33203125 L392.87109375,338.671875 L391.9921875,338.671875 L391.11328125,337.841796875 L390.234375,337.841796875 L388.4765625,336.181640625 L387.59765625,336.181640625 L385.83984375,334.521484375 L384.9609375,334.521484375 L383.203125,332.861328125 L382.32421875,332.861328125 L381.4453125,332.03125 L380.56640625,332.03125 L378.80859375,330.37109375 L377.9296875,330.37109375 L376.171875,328.7109375 L375.29296875,328.7109375 L373.53515625,327.05078125 L372.65625,327.05078125 L371.77734375,326.220703125 L370.8984375,326.220703125 L369.140625,324.560546875 L368.26171875,324.560546875 L366.50390625,322.900390625 L365.625,322.900390625 L363.8671875,321.240234375 L362.98828125,321.240234375 L362.109375,320.41015625 L361.23046875,320.41015625 L359.47265625,318.75 L358.59375,318.75 L356.8359375,317.08984375 L355.95703125,317.08984375 L355.078125,316.259765625 L354.19921875,316.259765625 L352.44140625,314.599609375 L351.5625,314.599609375 L349.8046875,312.939453125 L348.92578125,312.939453125 L347.16796875,311.279296875 L346.2890625,311.279296875 L345.41015625,310.44921875 L344.53125,310.44921875 L342.7734375,308.7890625 L341.89453125,308.7890625 L340.13671875,307.12890625 L339.2578125,307.12890625 L337.5,305.46875 L336.62109375,305.46875 L335.7421875,304.638671875 L334.86328125,304.638671875 L333.10546875,302.978515625 L332.2265625,302.978515625 L330.46875,301.318359375 L329.58984375,301.318359375 L327.83203125,299.658203125 L326.953125,299.658203125 L326.07421875,298.828125 L325.1953125,298.828125 L323.4375,297.16796875 L322.55859375,297.16796875 L320.80078125,295.5078125 L319.921875,295.5078125 L318.1640625,293.84765625 L317.28515625,293.84765625 L316.40625,293.017578125 L315.52734375,293.017578125 L313.76953125,291.357421875 L312.890625,291.357421875 L311.1328125,289.697265625 L310.25390625,289.697265625 L309.375,288.8671875 L308.49609375,288.8671875 L306.73828125,287.20703125 L305.859375,287.20703125 L304.1015625,285.546875 L303.22265625,285.546875 L301.46484375,283.88671875 L300.5859375,283.88671875 L299.70703125,283.056640625 L298.828125,283.056640625 L297.0703125,281.396484375 L296.19140625,281.396484375 L294.43359375,279.736328125 L293.5546875,279.736328125 L292.67578125,278.90625 L291.796875,278.90625 L290.0390625,277.24609375 L289.16015625,277.24609375 L287.40234375,275.5859375 L286.5234375,275.5859375 L285.64453125,274.755859375 Z" fill="black" /><path d="M 284.765625,213.330078125 L275.09765625,222.4609375 L275.09765625,223.291015625 L274.21875,224.12109375 L274.21875,231.591796875 L275.09765625,232.421875 L275.09765625,233.251953125 L276.85546875,234.912109375 L276.85546875,235.7421875 L278.61328125,237.40234375 L278.61328125,238.232421875 L282.12890625,241.552734375 L282.12890625,242.3828125 L283.0078125,243.212890625 L283.0078125,244.04296875 L283.88671875,244.873046875 L283.88671875,248.193359375 L283.0078125,249.0234375 L279.4921875,249.0234375 L278.61328125,248.193359375 L277.734375,248.193359375 L270.703125,241.552734375 L269.82421875,241.552734375 L268.06640625,239.892578125 L266.30859375,239.892578125 L265.4296875,239.0625 L257.51953125,239.0625 L256.640625,239.892578125 L255.76171875,239.892578125 L250.48828125,244.873046875 L250.48828125,245.703125 L246.97265625,249.0234375 L246.97265625,249.853515625 L252.24609375,254.833984375 L252.24609375,255.6640625 L255.76171875,258.984375 L256.640625,258.984375 L257.51953125,259.814453125 L258.3984375,259.814453125 L259.27734375,260.64453125 L265.4296875,260.64453125 L266.30859375,259.814453125 L267.1875,259.814453125 L268.06640625,258.984375 L268.9453125,258.984375 L275.09765625,253.173828125 L275.9765625,253.173828125 L277.734375,251.513671875 L282.12890625,251.513671875 L283.0078125,252.34375 L283.0078125,255.6640625 L280.37109375,258.154296875 L280.37109375,258.984375 L278.61328125,260.64453125 L278.61328125,261.474609375 L276.85546875,263.134765625 L276.85546875,264.794921875 L282.12890625,269.775390625 L282.12890625,270.60546875 L283.88671875,272.265625 L284.765625,272.265625 L293.5546875,263.96484375 L292.67578125,263.134765625 L292.67578125,262.3046875 L290.91796875,260.64453125 L290.91796875,259.814453125 L288.28125,257.32421875 L288.28125,256.494140625 L286.5234375,254.833984375 L286.5234375,252.34375 L287.40234375,251.513671875 L291.796875,251.513671875 L292.67578125,252.34375 L293.5546875,252.34375 L300.5859375,258.984375 L301.46484375,258.984375 L302.34375,259.814453125 L303.22265625,259.814453125 L304.1015625,260.64453125 L309.375,260.64453125 L310.25390625,259.814453125 L312.01171875,259.814453125 L313.76953125,258.154296875 L314.6484375,258.154296875 L316.40625,256.494140625 L316.40625,255.6640625 L321.6796875,250.68359375 L321.6796875,249.853515625 L322.55859375,249.0234375 L318.1640625,244.873046875 L318.1640625,244.04296875 L313.76953125,239.892578125 L312.01171875,239.892578125 L311.1328125,239.0625 L304.1015625,239.0625 L303.22265625,239.892578125 L301.46484375,239.892578125 L292.67578125,248.193359375 L290.91796875,248.193359375 L290.0390625,249.0234375 L287.40234375,249.0234375 L286.5234375,248.193359375 L286.5234375,244.04296875 L287.40234375,243.212890625 L287.40234375,242.3828125 L288.28125,241.552734375 L288.28125,240.72265625 L293.5546875,235.7421875 L293.5546875,234.912109375 L294.43359375,234.08203125 L294.43359375,233.251953125 L295.3125,232.421875 L295.3125,231.591796875 L296.19140625,230.76171875 L296.19140625,224.951171875 L295.3125,224.12109375 L295.3125,223.291015625 L294.43359375,222.4609375 L294.43359375,221.630859375 L286.5234375,214.16015625 L285.64453125,214.16015625 Z" fill="black" /></svg>